<!-- Doctora placeholder femenina - Avatar mejorado -->
<svg width="120" height="120" viewBox="0 0 120 120" fill="none" xmlns="http://www.w3.org/2000/svg">
  <circle cx="60" cy="60" r="60" fill="#f3e8ff"/>
  <!-- Cabello -->
  <path d="M25 50 C25 25, 45 15, 60 15 C75 15, 95 25, 95 50 L95 60 C90 45, 75 40, 60 40 C45 40, 30 45, 25 60 Z" fill="#8b4513"/>
  <!-- Cara -->
  <circle cx="60" cy="52" r="22" fill="#fdbcb4"/>
  <!-- Ojos -->
  <circle cx="52" cy="48" r="2" fill="#000"/>
  <circle cx="68" cy="48" r="2" fill="#000"/>
  <!-- Nariz -->
  <ellipse cx="60" cy="55" rx="1" ry="2" fill="#f4a79d"/>
  <!-- Boca -->
  <path d="M55 60 Q60 63 65 60" stroke="#d63384" stroke-width="1.5" fill="none"/>
  <!-- Cuerpo/Bata médica -->
  <path d="M35 85 C35 75, 45 70, 60 70 C75 70, 85 75, 85 85 L85 120 L35 120 Z" fill="#ffffff"/>
  <!-- Collar de la bata -->
  <path d="M45 75 L60 85 L75 75" stroke="#e9ecef" stroke-width="2" fill="none"/>
</svg>
